<?xml version="1.0" encoding="utf-8"?>
<!-- Generator: Adobe Illustrator 25.2.1, SVG Export Plug-In . SVG Version: 6.00 Build 0)  -->
<svg version="1.1" id="Layer_1" xmlns="http://www.w3.org/2000/svg" xmlns:xlink="http://www.w3.org/1999/xlink" x="0px" y="0px"
	 viewBox="0 0 178.3 96" style="enable-background:new 0 0 178.3 96;" xml:space="preserve">
<style type="text/css">
	.st0{fill:url(#SVGID_1_);}
</style>
<linearGradient id="SVGID_1_" gradientUnits="userSpaceOnUse" x1="89.1509" y1="139.1429" x2="89.1509" y2="-37.1837" gradientTransform="matrix(1 0 0 -1 0 98)">
	<stop  offset="0" style="stop-color:#985DFF"/>
	<stop  offset="1" style="stop-color:#985DFF;stop-opacity:0"/>
</linearGradient>
<path class="st0" d="M23.7,55h-4.9v41H0V0h18.8v42.5l4.4-1.9L49.6,0H71l-28,40.3l-7.4,5.2l7.7,5.3l32,45.1H52.1L23.7,55z
	 M159.5,46.2l2.1-19.1h-0.8l-5.9,15.4l-20.4,35.8h-6l-21.5-35.9l-6-15.2h-0.7l2.7,18.9V96H85V0h17.1l25.6,43.9l4.5,11h0.5l4.1-11.2
	L161.3,0h17v96h-18.8V46.2z"/>
</svg>
